<svg width="28" height="28" viewBox="0 0 28 28" fill="none" xmlns="http://www.w3.org/2000/svg">
<path d="M19.5866 0.666504H8.41329C3.55996 0.666504 0.666626 3.55984 0.666626 8.41317V19.5732C0.666626 24.4398 3.55996 27.3332 8.41329 27.3332H19.5733C24.4266 27.3332 27.32 24.4398 27.32 19.5865V8.41317C27.3333 3.55984 24.44 0.666504 19.5866 0.666504ZM14 19.1732C11.1466 19.1732 8.82662 16.8532 8.82662 13.9998C8.82662 11.1465 11.1466 8.8265 14 8.8265C16.8533 8.8265 19.1733 11.1465 19.1733 13.9998C19.1733 16.8532 16.8533 19.1732 14 19.1732ZM21.8933 7.17317C21.8266 7.33317 21.7333 7.47984 21.6133 7.61317C21.48 7.73317 21.3333 7.8265 21.1733 7.89317C20.9306 7.99617 20.6628 8.02454 20.4039 7.97467C20.1451 7.9248 19.907 7.79895 19.72 7.61317C19.6 7.47984 19.5066 7.33317 19.44 7.17317C19.3715 7.01293 19.3352 6.84076 19.3333 6.6665C19.3333 6.49317 19.3733 6.31984 19.44 6.15984C19.5066 5.9865 19.6 5.85317 19.72 5.71984C20.0266 5.41317 20.4933 5.2665 20.92 5.35984C21.0133 5.37317 21.0933 5.39984 21.1733 5.43984C21.2533 5.4665 21.3333 5.5065 21.4133 5.55984C21.48 5.59984 21.5466 5.6665 21.6133 5.71984C21.7333 5.85317 21.8266 5.9865 21.8933 6.15984C21.96 6.31984 22 6.49317 22 6.6665C22 6.83984 21.96 7.01317 21.8933 7.17317Z" fill="white"/>
</svg>
