<svg width="26" height="28" viewBox="0 0 26 28" fill="none" xmlns="http://www.w3.org/2000/svg">
<path fill-rule="evenodd" clip-rule="evenodd" d="M24.6672 0.666504H4.0539C3.6139 0.666504 3.18724 0.893171 2.94724 1.2665L0.893903 4.33317C0.747376 4.54977 0.668484 4.805 0.667236 5.0665V21.9998C0.667236 22.7332 1.26724 23.3332 2.00057 23.3332H4.66724C5.40057 23.3332 6.00057 23.9332 6.00057 24.6665V25.9998C6.00057 26.7332 6.60057 27.3332 7.3339 27.3332H9.28057C9.72057 27.3332 10.1472 27.1065 10.3872 26.7332L12.2672 23.9198C12.5206 23.5465 12.9339 23.3198 13.3739 23.3198H18.7739C19.1339 23.3198 19.4672 23.1732 19.7206 22.9332L25.6006 17.0532C25.7247 16.929 25.8229 16.7814 25.8893 16.6188C25.9557 16.4562 25.989 16.2821 25.9872 16.1065V1.99984C26.0006 1.2665 25.4006 0.666504 24.6672 0.666504ZM11.7206 15.1465C11.7206 15.5732 11.3739 15.9065 10.9606 15.9065H9.44057C9.23901 15.9065 9.0457 15.8264 8.90317 15.6839C8.76064 15.5414 8.68057 15.3481 8.68057 15.1465V7.53317C8.68057 7.1065 9.02724 6.77317 9.44057 6.77317H10.9606C11.3872 6.77317 11.7206 7.11984 11.7206 7.53317V15.1465ZM19.3339 15.1465C19.3339 15.5732 18.9872 15.9065 18.5739 15.9065H17.0539C16.9541 15.9065 16.8553 15.8868 16.7631 15.8487C16.6709 15.8105 16.5871 15.7545 16.5165 15.6839C16.4459 15.6133 16.3899 15.5296 16.3518 15.4373C16.3136 15.3451 16.2939 15.2463 16.2939 15.1465V7.53317C16.2939 7.1065 16.6406 6.77317 17.0539 6.77317H18.5739C19.0006 6.77317 19.3339 7.11984 19.3339 7.53317V15.1465Z" fill="white"/>
</svg>
