<svg width="33" height="32" viewBox="0 0 33 32" fill="none" xmlns="http://www.w3.org/2000/svg">
<g clip-path="url(#clip0_17_58)">
<path d="M24.6741 4H8.67407C3.87407 4 0.674072 6.97249 0.674072 11.4312V20.3487C0.674072 24.8074 3.87407 27.7799 8.67407 27.7799H24.6741C29.4741 27.7799 32.6741 24.8074 32.6741 20.3487V11.4312C32.6741 6.97249 29.4741 4 24.6741 4ZM19.6981 17.4208L15.7461 19.6204C14.1461 20.5122 12.8341 19.8285 12.8341 18.0896V13.6754C12.8341 11.9365 14.1461 11.2529 15.7461 12.1446L19.6981 14.3443C21.2181 15.2063 21.2181 16.5736 19.6981 17.4208Z" fill="white"/>
</g>
<defs>
<clipPath id="clip0_17_58">
<rect width="32" height="32" fill="white" transform="translate(0.674072)"/>
</clipPath>
</defs>
</svg>
